<!DOCTYPE svg PUBLIC "-//W3C//DTD SVG 1.1//EN" "http://www.w3.org/Graphics/SVG/1.1/DTD/svg11.dtd">
<!-- Uploaded to: SVG Repo, www.svgrepo.com, Transformed by: SVG Repo Mixer Tools -->
<svg version="1.1" id="Uploaded to svgrepo.com" xmlns="http://www.w3.org/2000/svg" xmlns:xlink="http://www.w3.org/1999/xlink" width="800px" height="800px" viewBox="0 0 32 32" xml:space="preserve" fill="#fff" stroke="#fff">
<g id="SVGRepo_bgCarrier" stroke-width="0"/>
<g id="SVGRepo_tracerCarrier" stroke-linecap="round" stroke-linejoin="round"/>
<g id="SVGRepo_iconCarrier"> <style type="text/css"> .duotone_twee{fill:#ffffff;} .duotone_een{fill:#ffffff0B1719;} .st0{fill:none;} </style> <g> <path class="duotone_een" d="M8.039,23.32c2.451-5.76,13.471-5.76,15.923,0C24.1,23.646,23.848,24,23.485,24H8.515 C8.152,24,7.9,23.646,8.039,23.32z M16,8c-2.761,0-5,2.239-5,5s2.239,5,5,5s5-2.239,5-5S18.761,8,16,8z"/> <path class="duotone_twee" d="M26.5,15.5c0,1.381-1.119,2.5-2.5,2.5s-2.5-1.119-2.5-2.5S22.619,13,24,13S26.5,14.119,26.5,15.5z M8,13c-1.381,0-2.5,1.119-2.5,2.5S6.619,18,8,18s2.5-1.119,2.5-2.5S9.381,13,8,13z M27.981,20.66 c-0.969-2.276-4.607-2.746-6.698-1.424c0.905,0.472,1.697,1.063,2.337,1.764h4.123C27.924,21,28.05,20.823,27.981,20.66z M10.717,19.236c-2.091-1.322-5.729-0.852-6.698,1.424C3.95,20.823,4.076,21,4.258,21h4.123 C9.02,20.299,9.812,19.708,10.717,19.236z"/> </g> </g>
</svg>